<svg version="1.1" xmlns="http://www.w3.org/2000/svg" viewBox="0 0 632.295807381291 532.3533507240004" width="632.295807381291" height="532.3533507240004">
  <!-- svg-source:excalidraw -->
  
  <defs>
    <style>
      @font-face {
        font-family: "Virgil";
        src: url("https://excalidraw.com/Virgil.woff2");
      }
      @font-face {
        font-family: "Cascadia";
        src: url("https://excalidraw.com/Cascadia.woff2");
      }
    </style>
  </defs>
  <rect x="0" y="0" width="632.295807381291" height="532.3533507240004" fill="#ffffff"></rect><g stroke-linecap="round"><g transform="translate(467.8322023406066 53.03401044644414) rotate(0 1.6245737846940642 130.17254804110155)"><path d="M-0.49 -0.04 C0.08 43.43, 3.31 217.86, 3.74 261.46 M1.45 -1.11 C1.88 41.96, 2.59 216.23, 3.07 259.68" stroke="#000000" stroke-width="1" fill="none"></path></g></g><g stroke-linecap="round"><g transform="translate(467.03221454763786 53.834013498201955) rotate(0 -74.29567303680813 127.99112132110633)"><path d="M0.97 1.19 C-23.78 43.53, -123.68 212.95, -148.4 255.22 M0.02 0.76 C-24.93 43.29, -124.92 211.54, -149.56 253.53" stroke="#000000" stroke-width="1" fill="none"></path></g></g><g stroke-linecap="round"><g transform="translate(315.03221454763786 311.4340043429285) rotate(0 78.7861538975593 -0.8159317416604779)"><path d="M0.76 -1.17 C27.24 -1.45, 131.86 -2.36, 157.87 -2.46 M-0.3 0.83 C26.13 0.82, 130.46 -0.18, 157.07 -0.95" stroke="#000000" stroke-width="1" fill="none"></path></g></g><g transform="translate(372.63219013357536 156.53401044644414) rotate(0 5.5 12.5)"><text x="0" y="17" font-family="Virgil, Segoe UI Emoji" font-size="20px" fill="#000000" text-anchor="start" style="white-space: pre;" direction="ltr">r</text></g><g transform="translate(483.03221454763786 179.7340226534754) rotate(0 5.5 12.5)"><text x="0" y="17" font-family="Virgil, Segoe UI Emoji" font-size="20px" fill="#000000" text-anchor="start" style="white-space: pre;" direction="ltr">y</text></g><g transform="translate(397.4321779265441 316.5340714816004) rotate(0 6.5 12.5)"><text x="0" y="17" font-family="Virgil, Segoe UI Emoji" font-size="20px" fill="#000000" text-anchor="start" style="white-space: pre;" direction="ltr">x</text></g><g stroke-linecap="round"><g transform="translate(11.032184030059739 307.4340043429285) rotate(0 305.11571966058574 -0.08336381351577415)"><path d="M0.28 0.05 C102.26 0.07, 509.29 -0.63, 611.26 -0.75 M-1.03 -0.98 C100.85 -0.67, 508.2 0.53, 610.35 0.81" stroke="#000000" stroke-width="1" fill="none"></path></g></g><g stroke-linecap="round"><g transform="translate(316.63219013357536 10.633963144198049) rotate(0 -1.069526328697691 255.54271221780215)"><path d="M-1.16 -0.63 C-1.4 42.97, -1.14 176.15, -1.23 261.32 C-1.33 346.49, -1.67 469.09, -1.71 510.4 M0.44 1.65 C0.05 45.39, -1.5 177.28, -1.99 262.29 C-2.49 347.3, -2.67 470.49, -2.53 511.72" stroke="#000000" stroke-width="1" fill="none"></path></g></g><g stroke-linecap="round" transform="translate(297.4321779265441 283.4340043429285) rotate(0 22.800018310546875 24.400009155273438)"><path d="M20.85 0.61 C25.35 0.22, 32.42 1.78, 36.44 4.99 C40.46 8.2, 44.03 14.64, 44.97 19.89 C45.91 25.14, 44.42 32.11, 42.07 36.47 C39.72 40.83, 35.4 44.15, 30.87 46.06 C26.35 47.96, 19.4 49.44, 14.93 47.9 C10.45 46.36, 6.49 41.22, 4.02 36.82 C1.55 32.42, -0.38 26.73, 0.12 21.5 C0.61 16.27, 2.63 9.08, 6.97 5.43 C11.3 1.78, 22.68 0.16, 26.14 -0.42 C29.6 -0.99, 27.76 1.57, 27.73 1.97 M20.73 -0.94 C25.24 -2.01, 31.84 0.21, 35.95 3.08 C40.05 5.95, 44.19 11.18, 45.36 16.3 C46.53 21.41, 45.09 28.72, 42.94 33.78 C40.78 38.85, 36.77 44.34, 32.43 46.69 C28.1 49.05, 21.38 49.32, 16.95 47.94 C12.52 46.56, 8.49 42.49, 5.86 38.4 C3.22 34.3, 0.99 28.41, 1.16 23.38 C1.32 18.34, 3.59 12.14, 6.83 8.2 C10.06 4.25, 18.34 1.03, 20.54 -0.3 C22.74 -1.63, 20.24 -0.37, 20.05 0.22" stroke="#000000" stroke-width="1" fill="none"></path></g><g stroke-linecap="round"><g transform="translate(371.03221454763786 297.0340714816004) rotate(0 -9.783570689046769 -12.462270282572149)"><path d="M0.36 -0.02 C-0.34 -3.28, -1.56 -15.5, -4.91 -19.34 C-8.26 -23.18, -17.12 -22.31, -19.73 -23.06 M-0.91 -1.07 C-1.17 -4.7, 0.5 -17.14, -2.67 -21.12 C-5.84 -25.09, -17.01 -24.65, -19.93 -24.91" stroke="#000000" stroke-width="1" fill="none"></path></g><g transform="translate(371.03221454763786 297.0340714816004) rotate(0 -9.783570689046769 -12.462270282572149)"><path d="M-11.71 -28.18 C-13.2 -26.1, -14.99 -26.07, -19.83 -25.34 M-11.37 -27.52 C-14.43 -26.63, -16.68 -25.66, -20.24 -25.19" stroke="#000000" stroke-width="1" fill="none"></path></g><g transform="translate(371.03221454763786 297.0340714816004) rotate(0 -9.783570689046769 -12.462270282572149)"><path d="M-11.96 -22.27 C-13.4 -21.62, -15.12 -23.02, -19.83 -25.34 M-11.61 -21.62 C-14.66 -22.4, -16.83 -23.11, -20.24 -25.19" stroke="#000000" stroke-width="1" fill="none"></path></g></g></svg>